<svg width="113" height="113" viewBox="0 0 113 113" fill="none" xmlns="http://www.w3.org/2000/svg">
<rect width="113" height="113" rx="56.5" fill="#E7E7E7" fill-opacity="0.7"/>
<ellipse cx="83.5768" cy="69.0011" rx="12.735" ry="3.59455" fill="#C4C4C4"/>
<ellipse cx="79.4687" cy="84.6117" rx="12.735" ry="3.59455" fill="#C4C4C4"/>
<ellipse cx="28.9396" cy="85.6387" rx="12.735" ry="3.59455" fill="#C4C4C4"/>
<ellipse cx="44.5502" cy="76.3956" rx="12.735" ry="3.59455" fill="#C4C4C4"/>
<line x1="83.8562" y1="70.3721" x2="44.8296" y2="77.7666" stroke="#C4C4C4" stroke-width="3"/>
<line x1="44.8937" y1="74.8328" x2="79.8122" y2="83.0489" stroke="#C4C4C4" stroke-width="3"/>
<line x1="45.3144" y1="77.5836" x2="29.7038" y2="86.8268" stroke="#C4C4C4" stroke-width="3"/>
<g clip-path="url(#clip0)">
<path d="M72.352 13.0436C71.9605 12.8217 71.497 12.7645 71.0633 12.8844C70.6296 13.0043 70.2613 13.2915 70.0393 13.6829L66.1411 20.5599L81.6196 29.3339L85.5187 22.4601C85.629 22.2661 85.7 22.0522 85.7275 21.8307C85.755 21.6092 85.7386 21.3844 85.6791 21.1693C85.6196 20.9542 85.5183 20.7529 85.3809 20.577C85.2435 20.4011 85.0728 20.254 84.8785 20.1441L72.352 13.0436ZM79.9462 32.2859L64.4677 23.512L49.0832 50.6526L49.7603 50.4654C50.1941 50.3455 50.6578 50.4028 51.0493 50.6248C51.4408 50.8467 51.7281 51.2151 51.8481 51.6489L52.3002 53.2844L53.9358 52.8323C54.3696 52.7124 54.8332 52.7697 55.2248 52.9916C55.6163 53.2136 55.9036 53.5819 56.0235 54.0157L56.4757 55.6513L58.1113 55.1991C58.5451 55.0792 59.0087 55.1365 59.4002 55.3585C59.7918 55.5804 60.0791 55.9488 60.199 56.3826L60.6512 58.0182L62.2868 57.566C62.7205 57.4461 63.1842 57.5034 63.5757 57.7253C63.9672 57.9473 64.2546 58.3156 64.3745 58.7494L64.5617 59.4266L79.9462 32.2859ZM62.2706 63.4684C62.1511 63.3044 62.0621 63.1203 62.0076 62.9249L61.5555 61.2893L59.9199 61.7415C59.4861 61.8614 59.0225 61.8041 58.6309 61.5822C58.2394 61.3602 57.9521 60.9918 57.8322 60.5581L57.38 58.9225L55.7444 59.3746C55.3106 59.4945 54.847 59.4372 54.4555 59.2153C54.0639 58.9934 53.7766 58.625 53.6567 58.1912L53.2045 56.5556L51.5689 57.0078C51.1352 57.1277 50.6715 57.0704 50.28 56.8484C49.8884 56.6265 49.6011 56.2581 49.4812 55.8243L49.029 54.1888L47.3935 54.6409C47.1978 54.6947 46.9941 54.7128 46.7921 54.6945L46.3675 55.4386C46.255 55.6387 46.1843 55.8595 46.1596 56.0877L44.1388 74.2521C44.102 74.5823 44.1629 74.9159 44.3139 75.2118C44.465 75.5076 44.6995 75.7526 44.9885 75.9164C45.2775 76.0802 45.6082 76.1556 45.9396 76.1332C46.271 76.1109 46.5885 75.9917 46.8529 75.7906L61.4001 64.7267C61.5832 64.5883 61.7363 64.4142 61.8502 64.2149L62.2715 63.4717L62.2706 63.4684Z" fill="#C00303"/>
</g>
<defs>
<clipPath id="clip0">
<rect width="54.3018" height="54.3018" fill="white" transform="translate(30.172 24.1918) rotate(-15.4534)"/>
</clipPath>
</defs>
</svg>
